<?xml version="1.0" encoding="UTF-8"?>
<svg version="1.1" xmlns="http://www.w3.org/2000/svg" width="1024" height="1024">
<path d="M0 0 C337.92 0 675.84 0 1024 0 C1024 337.92 1024 675.84 1024 1024 C686.08 1024 348.16 1024 0 1024 C0 686.08 0 348.16 0 0 Z " fill="#0B0A29" transform="translate(0,0)"/>
<path d="M0 0 C53.13 0 106.26 0 161 0 C159.41444274 3.96389316 157.79822994 7.23861694 155.6484375 10.8828125 C155.31759155 11.44573502 154.98674561 12.00865753 154.64587402 12.58863831 C153.55890793 14.43607414 152.46697998 16.28052412 151.375 18.125 C150.60794686 19.42666904 149.841187 20.72851095 149.07470703 22.03051758 C143.37089799 31.71184812 137.62813075 41.37015281 131.88891602 51.03051758 C127.30593204 58.7585425 122.79140657 66.52374956 118.3125 74.3125 C105.46727702 96.64897114 92.27992663 118.78872841 78.8671875 140.7890625 C77.45298598 143.10929031 76.03887525 145.42957335 74.625 147.75 C74.27418365 148.32567719 73.92336731 148.90135437 73.56192017 149.49447632 C67.21596928 159.91667968 61.0159836 170.42075814 54.88330078 180.96972656 C54.22958496 182.09217773 53.57586914 183.21462891 52.90234375 184.37109375 C52.34023193 185.33974365 51.77812012 186.30839355 51.19897461 187.30639648 C47.8913195 192.92560086 44.42680388 198.45292667 41 204 C51.85803012 204.0930928 62.71596372 204.16396308 73.57431316 204.20724869 C78.61747626 204.22803419 83.66036429 204.25618478 88.70336914 204.30175781 C93.57931496 204.34554035 98.45499788 204.36920489 103.33112526 204.37950897 C105.18207748 204.38684262 107.03301696 204.40116184 108.88385582 204.42292023 C125.31328824 204.60820584 138.72994829 202.87577185 151.13671875 190.9453125 C154.49354288 187.33655634 156.30277405 184.97526665 157 180 C157.66 180 158.32 180 159 180 C159 193.53 159 207.06 159 221 C103.89 221 48.78 221 -8 221 C-6.49141925 217.22854813 -5.05718159 214.23549527 -2.98046875 210.81640625 C-2.37726807 209.81818848 -1.77406738 208.8199707 -1.15258789 207.79150391 C-0.50410889 206.72593262 0.14437012 205.66036133 0.8125 204.5625 C1.83830493 202.86521673 2.86410075 201.16792773 3.88899231 199.47009277 C4.58489225 198.31727605 5.2811735 197.16468941 5.97782898 196.0123291 C9.16549419 190.73672417 12.30842989 185.43550432 15.4375 180.125 C16.50384541 178.31637038 17.57025282 176.50777731 18.63671875 174.69921875 C19.45148682 173.31742432 19.45148682 173.31742432 20.28271484 171.90771484 C22.10770568 168.81763227 23.93792097 165.73069461 25.76953125 162.64453125 C34.01771773 148.75206941 34.01771773 148.75206941 42.19921875 134.8203125 C42.54811157 134.22281189 42.89700439 133.62531128 43.25646973 133.00970459 C43.60608765 132.4109552 43.95570557 131.81220581 44.31591797 131.1953125 C51.49457608 118.90202051 58.77946934 106.68148048 66.20483398 94.53540039 C70.559751 87.40718162 74.80899171 80.22562813 79 73 C80.51635451 70.4140215 82.03962784 67.83214429 83.5625 65.25 C88.28316546 57.2360199 92.97067925 49.20285055 97.65063477 41.16503906 C102.7408261 32.42788678 107.86908057 23.71327163 113 15 C102.87226206 15.0846517 92.74467739 15.17962993 82.61715889 15.28752708 C77.91374748 15.33731774 73.21035667 15.38364833 68.50683594 15.421875 C63.96149587 15.45894669 59.41633576 15.50536388 54.87115097 15.55806351 C53.14339249 15.57649186 51.4155956 15.59164171 49.68777847 15.60334396 C31.34971174 15.73190845 17.67537113 17.89612206 3.9609375 31.14453125 C2 33 2 33 0 34 C0 22.78 0 11.56 0 0 Z " fill="#097DFB" transform="translate(232,370)"/>
<path d="M0 0 C1.09506363 -0.00060425 1.09506363 -0.00060425 2.21224976 -0.0012207 C23.01116454 0.06470206 40.25164232 5.28829273 59.3125 13.4375 C59.6425 24.9875 59.9725 36.5375 60.3125 48.4375 C55.99694246 45.56046164 52.73622585 43.1172394 49.0625 39.625 C32.85705551 24.75180904 15.16323348 17.45735813 -6.828125 18.08984375 C-16.70345175 18.62504502 -26.28252272 21.69074292 -33.6875 28.4375 C-36.07348655 31.26397638 -37.9418617 34.18121318 -39.6875 37.4375 C-40.0278125 38.06398438 -40.368125 38.69046875 -40.71875 39.3359375 C-44.17281111 46.9156827 -43.87635487 56.08911592 -41.0625 63.8125 C-32.20185981 82.72128886 -8.87035246 89.82241967 9.0546875 97.234375 C33.83789345 107.4909592 54.33692612 119.23313559 65.375 144.83984375 C71.16206511 160.87483666 69.08325348 175.99871124 62.03125 191.19921875 C56.04016604 202.29317364 46.1847928 210.4107973 35.3125 216.4375 C34.36632812 216.97117187 33.42015625 217.50484375 32.4453125 218.0546875 C5.85475823 232.23161431 -26.54940798 229.21029267 -54.65478516 221.06152344 C-72.56029029 215.56470971 -72.56029029 215.56470971 -74.6875 213.4375 C-74.77605161 210.7712397 -74.80274673 208.13102886 -74.78515625 205.46484375 C-74.7837413 204.66720108 -74.78232635 203.86955841 -74.78086853 203.04774475 C-74.77525316 200.49012565 -74.76269812 197.93259282 -74.75 195.375 C-74.74498698 193.64518355 -74.74042373 191.91536574 -74.73632812 190.18554688 C-74.72527875 185.93616447 -74.70800386 181.68684688 -74.6875 177.4375 C-71.52377448 178.93548535 -69.64925776 180.38304278 -67.3125 183 C-55.79161123 194.75557354 -39.57088806 201.9514657 -23.6875 205.4375 C-22.32625 205.74494141 -22.32625 205.74494141 -20.9375 206.05859375 C-7.03655754 208.79723051 8.42047243 209.38449276 20.9375 201.859375 C28.99498985 195.97528702 33.49947141 189.28969413 35.3125 179.4375 C36.59178831 166.17145546 32.72531678 155.70390485 24.63671875 145.27734375 C16.55670117 136.297624 4.44774093 132.38295731 -6.53125 128.078125 C-60.42122843 106.8883762 -60.42122843 106.8883762 -69.61328125 86.37109375 C-75.65784768 71.27400129 -73.81334482 50.82354217 -67.87109375 35.95703125 C-60.61292655 20.50647731 -47.22723918 10.38784067 -31.4375 4.5625 C-29.20562849 3.79896501 -26.95348259 3.09290752 -24.6875 2.4375 C-24.06963623 2.25276123 -23.45177246 2.06802246 -22.81518555 1.87768555 C-15.33427789 -0.09515559 -7.68379396 -0.00433702 0 0 Z " fill="#3B4AF9" transform="translate(564.6875,368.5625)"/>
<path d="M0 0 C12.87 0 25.74 0 39 0 C39.02307994 7.16760308 39.04295608 14.33507478 39.05493164 21.50268555 C39.05992942 23.93595825 39.06672986 26.36922799 39.07543945 28.80249023 C39.08770619 32.32015721 39.09327402 35.83778413 39.09765625 39.35546875 C39.10281754 40.42580856 39.10797882 41.49614838 39.11329651 42.59892273 C39.11376468 49.04579304 38.77594299 55.39162967 38.23698425 61.81480408 C37.61899676 70.1208886 37.69458578 78.46869386 37.64990234 86.79370117 C37.63326061 89.0617086 37.60586447 91.32966187 37.56787109 93.59741211 C37.51287257 96.91286666 37.49120783 100.22711859 37.4765625 103.54296875 C37.45389313 104.54426315 37.43122375 105.54555756 37.40786743 106.57719421 C37.431131 114.39954927 39.42090593 120.90704274 44.64614868 126.88249207 C51.72339415 133.73546899 60.30292298 135.59890318 69.88867188 135.47265625 C82.02959692 134.9462825 91.65777787 130.47737366 100.75 122.625 C107.60616757 114.62613784 110.29137546 107.21375154 110.33813477 96.7409668 C110.34967087 95.82795807 110.36120697 94.91494934 110.37309265 93.97427368 C110.40729033 90.96590425 110.42587814 87.95773947 110.44140625 84.94921875 C110.44830915 83.91786112 110.45521206 82.88650349 110.46232414 81.82389259 C110.49810937 76.36704997 110.52167604 70.91031008 110.53540039 65.45336914 C110.55195374 59.83091816 110.61040171 54.20972361 110.67854404 48.58769512 C110.72340761 44.25095254 110.73690057 39.91450943 110.74201775 35.5775547 C110.74989189 33.50555459 110.7694777 31.43356321 110.80124092 29.36179161 C111.4564324 16.57625227 111.4564324 16.57625227 106.45288086 5.28442383 C105.30820233 4.18304965 104.15913871 3.08614523 103 2 C103 1.34 103 0.68 103 0 C115.87 0 128.74 0 142 0 C142.0093457 4.113479 142.01869141 8.22695801 142.02832031 12.46508789 C142.06207848 26.05184 142.11742004 39.63843215 142.18390274 53.22506046 C142.22368608 61.46311323 142.25608212 69.70107056 142.27099609 77.93920898 C142.28401631 85.12087066 142.31099027 92.3023223 142.35461307 99.48386568 C142.37721977 103.28532177 142.39291117 107.08651889 142.39188385 110.88804817 C142.39113675 114.46935508 142.40910664 118.05008969 142.44116783 121.63124847 C142.4536911 123.56574534 142.44660664 125.50033834 142.43885803 127.43486023 C142.540826 135.95389113 143.92845989 140.93396068 149.75 147.3125 C152 150 152 150 152 152 C138.47 152 124.94 152 111 152 C110.67 144.08 110.34 136.16 110 128 C108.989375 129.505625 107.97875 131.01125 106.9375 132.5625 C97.53391983 145.89677668 86.12235783 152.28564927 70.1484375 155.58984375 C54.61028621 157.6140446 39.11714539 156.18761539 26 147 C14.77225932 137.70040501 8.24539036 126.02195307 6.72833824 111.37760544 C6.63822726 108.72687831 6.63116859 106.09101264 6.6628418 103.43896484 C6.6622879 102.44719742 6.66173401 101.45542999 6.66116333 100.43360901 C6.6614213 98.30135466 6.66821331 96.16909267 6.68100548 94.03687668 C6.69951941 90.65603356 6.69667217 87.27580446 6.6879425 83.89492798 C6.66622617 74.29020489 6.6771076 64.68572367 6.71508789 55.08105469 C6.7369103 49.18726604 6.72962854 43.29408504 6.7046299 37.40031815 C6.70104594 35.16371244 6.7086472 32.92705857 6.72788048 30.69053268 C6.75429135 27.56042318 6.7437465 24.43236863 6.7253418 21.30224609 C6.74227585 20.388759 6.7592099 19.47527191 6.7766571 18.53410339 C6.68788964 12.31845881 5.06301834 8.73621446 1.2869997 3.80187416 C0 2 0 2 0 0 Z " fill="#5B3FF7" transform="translate(657,439)"/>
<path d="M0 0 C13.86 0 27.72 0 42 0 C42.55907451 21.56430239 43.00865628 43.11151955 43.16163063 64.68135452 C43.18362986 67.71591784 43.20753357 70.75046011 43.23210144 73.78500366 C43.24023393 74.79448122 43.24836641 75.80395878 43.25674534 76.84402657 C43.27327148 78.89438484 43.28985479 80.94474266 43.30649471 82.99510002 C43.35507406 89.15178923 43.39009088 95.3083892 43.41624928 101.46521187 C43.43593464 105.3832151 43.46777343 109.30105682 43.50256538 113.21895218 C43.51632889 115.06313579 43.5249438 116.90736602 43.52805901 118.75159836 C43.53300072 121.31158797 43.55622097 123.87082825 43.58349609 126.43066406 C43.5789902 127.53855947 43.5789902 127.53855947 43.57439327 128.66883659 C43.71064911 137.32432445 46.24918368 143.62747381 52 150 C52 150.66 52 151.32 52 152 C37.81 152 23.62 152 9 152 C8.98541748 147.99311035 8.97083496 143.9862207 8.95581055 139.85791016 C8.90543207 126.60647096 8.83898011 113.35515303 8.76428509 100.10383034 C8.71939689 92.07102397 8.6799663 84.03826125 8.65356445 76.00537109 C8.63052769 69.00059796 8.5970667 61.99596376 8.55129844 54.99130094 C8.52744241 51.2853647 8.50866392 47.5795654 8.50238609 43.87355423 C8.49516696 39.72751671 8.4646663 35.58195327 8.43237305 31.43603516 C8.43380814 30.21898895 8.43524323 29.00194275 8.4367218 27.74801636 C8.31107127 16.3110933 6.13255511 9.81208817 0 0 Z " fill="#0963F9" transform="translate(414,439)"/>
<path d="M0 0 C6.6583846 3.10458413 11.35016794 7.15465297 14.16796875 14.08984375 C15.22738537 22.17808214 14.91705094 29.24230215 10.11328125 36.0234375 C4.71557479 41.75714577 -1.22574604 43.39285296 -8.95703125 43.83984375 C-14.8387443 43.60329659 -18.23931801 42.52234631 -22.27734375 38.20703125 C-27.16209383 31.5549344 -28.88036237 25.30824206 -27.83203125 17.08984375 C-26.54438519 10.58776325 -23.83265824 5.50360009 -18.83203125 1.08984375 C-13.30336796 -2.40812156 -6.04437204 -1.94253612 0 0 Z " fill="#1D5BF9" transform="translate(444.83203125,371.91015625)"/>
<path d="M0 0 C55.44 0 110.88 0 168 0 C168 0.66 168 1.32 168 2 C161.33416981 3.70989983 155.29208455 4.28384506 148.42700195 4.24291992 C147.40717728 4.24481827 146.3873526 4.24671661 145.33662415 4.24867249 C141.97043085 4.25236778 138.60445543 4.24166601 135.23828125 4.23046875 C132.85027593 4.2292727 130.46227013 4.22882468 128.07426453 4.2290802 C123.04825925 4.22751573 118.0223252 4.21924903 112.99633789 4.20581055 C106.70286131 4.18915718 100.40946459 4.18507052 94.1159687 4.18563652 C63.06533417 4.1848842 32.03952105 3.83613409 1 3 C0.67 2.01 0.34 1.02 0 0 Z " fill="#000114" transform="translate(224,591)"/>
<path d="M0 0 C0.66 0 1.32 0 2 0 C2.01030746 0.60499329 2.02061493 1.20998657 2.03123474 1.83331299 C2.13937584 8.12742758 2.25396779 14.42140123 2.37231445 20.71533203 C2.41563886 23.0645859 2.45731573 25.41387075 2.49731445 27.76318359 C2.55507715 31.1390924 2.61875468 34.51484561 2.68359375 37.890625 C2.70866249 39.46738007 2.70866249 39.46738007 2.73423767 41.07598877 C2.75418289 42.05670349 2.77412811 43.03741821 2.79467773 44.04785156 C2.81799416 45.3402475 2.81799416 45.3402475 2.84178162 46.65875244 C2.92784493 48.96533438 2.92784493 48.96533438 3.5057373 51.00970459 C4.0830097 53.33426318 4.11991863 55.40218065 4.11352539 57.796875 C4.11344986 58.7446582 4.11337433 59.69244141 4.11329651 60.66894531 C4.10813522 61.68569336 4.10297394 62.70244141 4.09765625 63.75 C4.0962413 64.80026367 4.09482635 65.85052734 4.09336853 66.93261719 C4.08777445 70.28844049 4.07523322 73.64419693 4.0625 77 C4.05748333 79.26041569 4.05292071 81.52083244 4.04882812 83.78125 C4.03899879 88.76206351 4.02479076 93.74284261 4.00672913 98.72363281 C4.00054467 100.81574727 4 102.9078764 4 105 C3.98861106 107.12500179 3.97684853 109.2500016 3.96484375 111.375 C3.95553849 113.91666598 3.94643156 116.45833268 3.9375 119 C3.92912109 120.28390625 3.92074219 121.5678125 3.91210938 122.890625 C3.90727539 124.73914063 3.90727539 124.73914063 3.90234375 126.625 C3.89710693 127.75164062 3.89187012 128.87828125 3.88647461 130.0390625 C3.98295209 132.55536119 4.262246 134.60767858 5 137 C5.66 136.67 6.32 136.34 7 136 C6.896875 137.19625 6.79375 138.3925 6.6875 139.625 C6.65644487 143.11559679 7.2385682 144.83724368 9.5 147.5 C10.325 148.325 11.15 149.15 12 150 C11.505 150.99 11.505 150.99 11 152 C10.34 152 9.68 152 9 152 C7.59765625 150.56640625 7.59765625 150.56640625 6.0625 148.5625 C5.55847656 147.92441406 5.05445313 147.28632812 4.53515625 146.62890625 C0.79710301 140.22760897 -0.4465842 133.74356231 -0.43237305 126.41479492 C-0.4425647 125.60633621 -0.45275635 124.7978775 -0.46325684 123.96492004 C-0.4932995 121.3033638 -0.50266995 118.64217241 -0.51171875 115.98046875 C-0.52863813 114.08090617 -0.54679752 112.18135427 -0.56611633 110.28181458 C-0.61359185 105.26329053 -0.64332653 100.2448091 -0.66955566 95.22613525 C-0.69870177 90.29062943 -0.74590246 85.35530263 -0.79101562 80.41992188 C-0.88532869 69.62625869 -0.94501804 58.83260981 -0.98784637 48.03862762 C-0.99610015 45.97503236 -1.0047873 43.9114388 -1.01386261 41.84784698 C-1.04132535 35.59033059 -1.06282 29.33284611 -1.0752964 23.07528114 C-1.07976544 21.10979099 -1.08581205 19.14430375 -1.09348106 17.17882347 C-1.10340935 14.47377154 -1.10695049 11.76878857 -1.10864258 9.0637207 C-1.11280748 8.25636034 -1.11697239 7.44899998 -1.1212635 6.61717415 C-1.11435454 1.11435454 -1.11435454 1.11435454 0 0 Z " fill="#06072F" transform="translate(457,439)"/>
<path d="M0 0 C12.87 0 25.74 0 39 0 C39.0093457 4.113479 39.01869141 8.22695801 39.02832031 12.46508789 C39.06207848 26.05184 39.11742004 39.63843215 39.18390274 53.22506046 C39.22368608 61.46311323 39.25608212 69.70107056 39.27099609 77.93920898 C39.28401631 85.12087066 39.31099027 92.3023223 39.35461307 99.48386568 C39.37721977 103.28532177 39.39291117 107.08651889 39.39188385 110.88804817 C39.39113675 114.46935508 39.40910664 118.05008969 39.44116783 121.63124847 C39.4536911 123.56574534 39.44660664 125.50033834 39.43885803 127.43486023 C39.52072729 134.27472151 40.1115235 138.35914967 44 144 C44 144.99 44 145.98 44 147 C39.84900504 143.36574625 37.62662099 140.31401523 37.22705078 134.7199707 C37.18594083 132.62228367 37.17763801 130.52379663 37.1953125 128.42578125 C37.18156082 127.26452225 37.16780914 126.10326324 37.15364075 124.90681458 C37.11547945 121.04167008 37.12000987 117.17781083 37.125 113.3125 C37.11049578 110.60070016 37.0872319 107.88898942 37.06469727 105.17724609 C37.00992391 97.7411294 37.00140082 90.30536943 37.00140381 82.86907959 C37.00113039 77.79111817 36.99060928 72.7132003 36.97900391 67.63525391 C36.93129141 45.75657885 36.94675282 23.87867559 37 2 C24.79 2 12.58 2 0 2 C0 1.34 0 0.68 0 0 Z " fill="#8D74E9" transform="translate(760,439)"/>
<path d="M0 0 C26.22590566 -0.89966427 46.79705476 2.65236399 71 13 C71.33 24.55 71.66 36.1 72 48 C67.70655563 45.13770375 64.46566033 42.72077865 60.8125 39.25 C55.51924768 34.34937903 49.92526097 30.10298535 44 26 C44.66 25.67 45.32 25.34 46 25 C47.34977849 25.63270867 48.68352881 26.30062468 50 27 C50.66 27 51.32 27 52 27 C52 27.99 52 28.98 52 30 C52.556875 30.061875 53.11375 30.12375 53.6875 30.1875 C56.99038567 31.34797334 58.58120525 33.47126004 61 36 C63.63503019 38.37005509 66.31436171 40.68755214 69 43 C68.67 42.01 68.34 41.02 68 40 C67.85110253 38.15533558 67.7520899 36.30642725 67.68359375 34.45703125 C67.64169922 33.38388672 67.59980469 32.31074219 67.55664062 31.20507812 C67.51732422 30.08552734 67.47800781 28.96597656 67.4375 27.8125 C67.39431641 26.68134766 67.35113281 25.55019531 67.30664062 24.38476562 C67.20050901 21.58996646 67.09845615 18.79507838 67 16 C66.01 15.67 65.02 15.34 64 15 C64 14.34 64 13.68 64 13 C62.68 12.67 61.36 12.34 60 12 C60 11.34 60 10.68 60 10 C59.26136719 9.81824219 58.52273438 9.63648438 57.76171875 9.44921875 C52.65119773 8.18295242 47.56211826 6.88593092 42.5 5.4375 C32.32596359 2.66539612 22.26611166 1.67297719 11.75 1.375 C10.61175781 1.33632813 9.47351563 1.29765625 8.30078125 1.2578125 C5.53400221 1.16481152 2.76720883 1.07897139 0 1 C0 0.67 0 0.34 0 0 Z " fill="#9E89EF" transform="translate(553,369)"/>
<path d="M0 0 C0.66 0 1.32 0 2 0 C2.01030746 0.60499329 2.02061493 1.20998657 2.03123474 1.83331299 C2.13937584 8.12742758 2.25396779 14.42140123 2.37231445 20.71533203 C2.41563886 23.0645859 2.45731573 25.41387075 2.49731445 27.76318359 C2.55507715 31.1390924 2.61875468 34.51484561 2.68359375 37.890625 C2.70866249 39.46738007 2.70866249 39.46738007 2.73423767 41.07598877 C2.75418289 42.05670349 2.77412811 43.03741821 2.79467773 44.04785156 C2.81799416 45.3402475 2.81799416 45.3402475 2.84178162 46.65875244 C2.92801827 48.96524991 2.92801827 48.96524991 3.50474548 51.00970459 C4.08254313 53.33171875 4.12710619 55.40448694 4.12939453 57.796875 C4.13254669 58.7446582 4.13569885 59.69244141 4.13894653 60.66894531 C4.1369223 61.68569336 4.13489807 62.70244141 4.1328125 63.75 C4.13376923 64.80026367 4.13472595 65.85052734 4.13571167 66.93261719 C4.13639174 69.15169332 4.13454953 71.37077145 4.13037109 73.58984375 C4.12502044 76.98702461 4.13032198 80.38407326 4.13671875 83.78125 C4.13605794 85.93750029 4.13477671 88.0937505 4.1328125 90.25 C4.13584885 91.77512207 4.13584885 91.77512207 4.13894653 93.33105469 C4.13421829 94.75272949 4.13421829 94.75272949 4.12939453 96.203125 C4.12820114 97.45077637 4.12820114 97.45077637 4.12698364 98.72363281 C4.00323875 100.94194061 3.61607668 102.87065798 3 105 C2.34 105 1.68 105 1 105 C0.67 85.2 0.34 65.4 0 45 C-0.33 45 -0.66 45 -1 45 C-1.02527124 38.75204325 -1.04283344 32.50409959 -1.05493164 26.25610352 C-1.05997298 24.12881986 -1.06680591 22.00153969 -1.07543945 19.87426758 C-1.08751379 16.82372174 -1.09323014 13.77322155 -1.09765625 10.72265625 C-1.10281754 9.76537125 -1.10797882 8.80808624 -1.11329651 7.8217926 C-1.11337204 6.94095505 -1.11344757 6.06011749 -1.11352539 5.15258789 C-1.115746 4.37315323 -1.11796661 3.59371857 -1.12025452 2.79066467 C-1 1 -1 1 0 0 Z " fill="#0D0E3F" transform="translate(457,439)"/>
<path d="M0 0 C23.1 0 46.2 0 70 0 C69.67 0.99 69.34 1.98 69 3 C53.57387951 4.12851091 38.26654018 3.93687836 22.8125 3.5625 C20.39389435 3.50912097 17.97527447 3.45638249 15.55664062 3.40429688 C9.70424294 3.27689666 3.85206895 3.14166227 -2 3 C-1.34 2.67 -0.68 2.34 0 2 C0 1.34 0 0.68 0 0 Z " fill="#010118" transform="translate(274,386)"/>
<path d="M0 0 C-1.0625 1.9375 -1.0625 1.9375 -3 4 C-5.32495277 4.38749213 -7.6599583 4.71758117 -10 5 C-12.62387135 6.39092892 -12.62387135 6.39092892 -15 8 C-20.94655734 10.6759508 -26.465269 11.15798461 -32.93359375 11.16796875 C-34.06692894 11.17296135 -34.06692894 11.17296135 -35.22315979 11.17805481 C-36.8158406 11.18310083 -38.40853191 11.18546386 -40.0012207 11.18530273 C-42.42612244 11.18748974 -44.85056921 11.20567122 -47.27539062 11.22460938 C-48.82812346 11.22754376 -50.38085843 11.22952826 -51.93359375 11.23046875 C-52.65252304 11.23765427 -53.37145233 11.24483978 -54.11216736 11.25224304 C-58.45247733 11.23272419 -61.96466496 10.59352906 -66 9 C-66 8.34 -66 7.68 -66 7 C-64.52744751 7.02356567 -64.52744751 7.02356567 -63.02514648 7.04760742 C-59.30697162 7.10280099 -55.58883107 7.13666731 -51.87036133 7.16479492 C-50.27524688 7.17968159 -48.68017183 7.19999768 -47.08520508 7.22631836 C-33.79297706 7.43983131 -21.12082082 6.64240907 -8.75 1.25 C-3.31168831 -1.1038961 -3.31168831 -1.1038961 0 0 Z " fill="#040521" transform="translate(598,588)"/>
<path d="M0 0 C1.7569055 0.00373656 3.5138131 0.00658049 5.27072144 0.00857544 C9.86395155 0.01616128 14.4570524 0.0357656 19.05023193 0.0579834 C23.74961601 0.07855141 28.44902125 0.08760044 33.1484375 0.09765625 C42.34641053 0.11901691 51.54428821 0.15309088 60.7421875 0.1953125 C60.4121875 0.8553125 60.0821875 1.5153125 59.7421875 2.1953125 C36.6421875 1.8653125 13.5421875 1.5353125 -10.2578125 1.1953125 C-10.2578125 1.8553125 -10.2578125 2.5153125 -10.2578125 3.1953125 C-12.63536684 3.67082337 -15.01294119 4.14623055 -17.390625 4.62109375 C-19.23998886 4.99147044 -21.08897781 5.36372646 -22.9375 5.73828125 C-27.3676326 6.63373358 -31.79233239 7.49023669 -36.2578125 8.1953125 C-36.5878125 9.8453125 -36.9178125 11.4953125 -37.2578125 13.1953125 C-39.5678125 12.8653125 -41.8778125 12.5353125 -44.2578125 12.1953125 C-33.45145677 -0.84684097 -15.40136105 -0.09676729 0 0 Z " fill="#051654" transform="translate(284.2578125,384.8046875)"/>
<path d="M0 0 C3.64726105 3.12622376 7.11729536 6.10413102 10.5625 9.375 C21.10275384 18.52466586 34.06650151 23.30757424 47 28 C43.90226756 28.84062397 41.21667249 29.08935201 38 29 C38 28.01 38 27.02 38 26 C36.63875 25.7834375 36.63875 25.7834375 35.25 25.5625 C32.78523044 25.13590527 30.41152893 24.64925779 28 24 C28 23.34 28 22.68 28 22 C26.824375 21.690625 26.824375 21.690625 25.625 21.375 C21.50772026 19.8132732 18.07047921 17.69910592 14.3671875 15.33984375 C12.19201587 14.10868225 10.4396402 13.45532455 8 13 C8 12.01 8 11.02 8 10 C7.34 10 6.68 10 6 10 C6 9.01 6 8.02 6 7 C4.68 6.67 3.36 6.34 2 6 C2.16371094 6.91910156 2.32742188 7.83820312 2.49609375 8.78515625 C3.23937095 13.98809668 3.10685707 19.19312905 3.0625 24.4375 C3.05798828 25.45521484 3.05347656 26.47292969 3.04882812 27.52148438 C3.03712437 30.01438509 3.02072848 32.50716074 3 35 C3.99 35 4.98 35 6 35 C6 35.66 6 36.32 6 37 C4.02 36.34 2.04 35.68 0 35 C0 23.45 0 11.9 0 0 Z " fill="#1746D9" transform="translate(490,547)"/>
<path d="M0 0 C0.33 0.66 0.66 1.32 1 2 C0.67 2.99 0.34 3.98 0 5 C53.13 5 106.26 5 161 5 C161 5.33 161 5.66 161 6 C106.88 6 52.76 6 -3 6 C-1 1 -1 1 0 0 Z " fill="#0944E5" transform="translate(227,585)"/>
<path d="M0 0 C2.3987917 1.18458849 4.7705962 2.40689015 7.13671875 3.65625 C8.32018782 4.27107339 9.50378484 4.88565055 10.6875 5.5 C11.84636719 6.1084375 13.00523437 6.716875 14.19921875 7.34375 C22.86263086 11.4040116 31.96278209 11.35713276 41.35546875 11.56640625 C42.29777344 11.59605469 43.24007812 11.62570312 44.2109375 11.65625 C45.05962402 11.67494141 45.90831055 11.69363281 46.78271484 11.71289062 C49 12 49 12 52 14 C47.77081935 16.11459033 42.20758485 15.22959326 37.5625 15.25 C36.42361328 15.270625 35.28472656 15.29125 34.11132812 15.3125 C24.34634163 15.35711444 15.55386535 13.85489655 7 9 C7 8.34 7 7.68 7 7 C6.34 7 5.68 7 5 7 C5 6.34 5 5.68 5 5 C3.68 5 2.36 5 1 5 C0.67 3.35 0.34 1.7 0 0 Z " fill="#01021A" transform="translate(679,583)"/>
<path d="M0 0 C2.5950398 1.15738116 5.15599685 2.35467305 7.69921875 3.62109375 C7.69921875 4.61109375 7.69921875 5.60109375 7.69921875 6.62109375 C5.96671875 6.03328125 5.96671875 6.03328125 4.19921875 5.43359375 C3.36390625 5.16546875 2.52859375 4.89734375 1.66796875 4.62109375 C-0.43717656 3.91199217 -2.51954576 3.13358794 -4.58203125 2.30859375 C-17.03955114 -2.29754806 -29.15081893 -1.8901189 -42.30078125 -1.37890625 C-36.59481336 -12.79084204 -8.28722847 -3.46200195 0 0 Z " fill="#03031C" transform="translate(590.30078125,391.37890625)"/>
<path d="M0 0 C6.3665727 -0.37992206 11.31703699 2.40673987 17 5 C17.59651367 5.2676416 18.19302734 5.5352832 18.80761719 5.81103516 C34.61045257 12.96632428 34.61045257 12.96632428 38 19 C37.66015625 21.20703125 37.66015625 21.20703125 37 23 C36.505 21.515 36.505 21.515 36 20 C35.34 20 34.68 20 34 20 C34 19.34 34 18.68 34 18 C33.14341797 17.57460938 33.14341797 17.57460938 32.26953125 17.140625 C30.82302717 16.41363844 29.3821806 15.67520352 27.94921875 14.921875 C22.15763438 11.92105408 16.25119963 9.41681693 10.1784668 7.05566406 C3.03768715 4.27478496 3.03768715 4.27478496 1 3 C0.67 2.01 0.34 1.02 0 0 Z " fill="#02021D" transform="translate(552,495)"/>
<path d="M0 0 C0.66 0 1.32 0 2 0 C2 13.53 2 27.06 2 41 C1.01 41 0.02 41 -1 41 C-1.33 31.1 -1.66 21.2 -2 11 C-2.66 10.67 -3.32 10.34 -4 10 C-3.71125 9.46375 -3.4225 8.9275 -3.125 8.375 C-1.83288192 5.64719516 -0.91441408 2.87387282 0 0 Z " fill="#438DED" transform="translate(389,550)"/>
<path d="M0 0 C1.98 0.99 1.98 0.99 4 2 C4.16811151 6.89276915 4.32861689 11.7857076 4.48217773 16.67895508 C4.53544145 18.34243427 4.5907578 20.00584908 4.64819336 21.66918945 C4.73054248 24.06447473 4.80542899 26.45989689 4.87890625 28.85546875 C4.90594131 29.5952446 4.93297638 30.33502045 4.96083069 31.09721375 C5.06955378 34.88617671 4.93831637 38.31939877 4 42 C3.01 42 2.02 42 1 42 C0.505 21.21 0.505 21.21 0 0 Z " fill="#070B3D" transform="translate(390,549)"/>
<path d="M0 0 C0.33 0 0.66 0 1 0 C1.33 9.57 1.66 19.14 2 29 C10.83649445 31.83998249 10.83649445 31.83998249 19.68139648 34.65356445 C21.32217163 35.19049927 21.32217163 35.19049927 22.99609375 35.73828125 C24.12200928 36.09962158 25.2479248 36.46096191 26.40795898 36.83325195 C27.69101929 37.41079224 27.69101929 37.41079224 29 38 C29.33 38.99 29.66 39.98 30 41 C23.125 40.125 23.125 40.125 22 39 C20.48143473 38.86679252 18.95972485 38.76884026 17.4375 38.6875 C11.0670428 38.12164277 4.62313618 35.62313618 0 31 C-0.08790975 28.70848583 -0.10694038 26.41427476 -0.09765625 24.12109375 C-0.0962413 23.4344313 -0.09482635 22.74776886 -0.09336853 22.04029846 C-0.08775479 19.83932199 -0.07520007 17.63844591 -0.0625 15.4375 C-0.05748676 13.94856917 -0.05292355 12.45963676 -0.04882812 10.97070312 C-0.03778093 7.31376925 -0.02050713 3.65689442 0 0 Z " fill="#01011F" transform="translate(489,553)"/>
<path d="M0 0 C19.84783257 -0.71739154 37.38018141 2.11630949 56 9 C56 9.66 56 10.32 56 11 C57.32 11.66 58.64 12.32 60 13 C57.03 13 54.06 13 51 13 C50.505 11.02 50.505 11.02 50 9 C48.989375 8.87625 47.97875 8.7525 46.9375 8.625 C43.14782104 8.02346366 39.67820559 7.07809474 36 6 C33.64380556 5.46432482 31.28350792 4.95749476 28.91796875 4.46484375 C27 4 27 4 25 3 C22.9907774 3 20.98098092 3.00243795 18.97265625 3.0625 C17 3 17 3 14 2 C11.60745424 1.77439324 9.21071877 1.59151405 6.8125 1.4375 C5.54019531 1.35371094 4.26789062 1.26992188 2.95703125 1.18359375 C1.98121094 1.12300781 1.00539063 1.06242187 0 1 C0 0.67 0 0.34 0 0 Z " fill="#5C40E9" transform="translate(557,370)"/>
<path d="M0 0 C0.66 0 1.32 0 2 0 C2 16.83 2 33.66 2 51 C1.67 51 1.34 51 1 51 C0.67 49.02 0.34 47.04 0 45 C-0.33 45 -0.66 45 -1 45 C-1.02527124 38.75204325 -1.04283344 32.50409959 -1.05493164 26.25610352 C-1.05997298 24.12881986 -1.06680591 22.00153969 -1.07543945 19.87426758 C-1.08751379 16.82372174 -1.09323014 13.77322155 -1.09765625 10.72265625 C-1.10281754 9.76537125 -1.10797882 8.80808624 -1.11329651 7.8217926 C-1.11337204 6.94095505 -1.11344757 6.06011749 -1.11352539 5.15258789 C-1.115746 4.37315323 -1.11796661 3.59371857 -1.12025452 2.79066467 C-1 1 -1 1 0 0 Z " fill="#151F58" transform="translate(457,439)"/>
<path d="M0 0 C4.6532012 0.58721086 8.28980042 2.61125247 12.3125 4.875 C17.4419928 7.6943777 22.41789683 10.17727244 28 12 C28 12.99 28 13.98 28 15 C29.32 15 30.64 15 32 15 C31.67 15.99 31.34 16.98 31 18 C18.70820669 13.00133739 18.70820669 13.00133739 13.01953125 10.03125 C11.47386251 9.24197235 9.90363038 8.50063165 8.32421875 7.78125 C7.41285156 7.3584375 6.50148438 6.935625 5.5625 6.5 C4.71816406 6.1184375 3.87382813 5.736875 3.00390625 5.34375 C1 4 1 4 0.21484375 1.84375 C0.14394531 1.2353125 0.07304688 0.626875 0 0 Z " fill="#02021C" transform="translate(519,479)"/>
<path d="M0 0 C1.5 1.3125 1.5 1.3125 3 3 C3 3.99 3 4.98 3 6 C27.09 6 51.18 6 76 6 C76 6.33 76 6.66 76 7 C49.93 7 23.86 7 -3 7 C-1 2 -1 2 0 0 Z " fill="#0A0F3B" transform="translate(276,567)"/>
<path d="M0 0 C13.86 0 27.72 0 42 0 C41.67 0.66 41.34 1.32 41 2 C34.35537604 3.05725134 27.77888308 3.15296551 21.0625 3.125 C20.13759766 3.12886719 19.21269531 3.13273438 18.25976562 3.13671875 C12.11685771 3.12810921 6.09911028 2.72689274 0 2 C0 1.34 0 0.68 0 0 Z " fill="#000012" transform="translate(423,592)"/>
<path d="M0 0 C0 0.66 0 1.32 0 2 C-0.93199219 2.15855469 -1.86398437 2.31710937 -2.82421875 2.48046875 C-20.28591544 5.67618877 -37.34747709 11.94748394 -48.30859375 26.76953125 C-49.24539077 28.15365695 -50.12988562 29.57301241 -51 31 C-51.33 30.01 -51.66 29.02 -52 28 C-38.96851118 12.68877082 -21.02230047 0 0 0 Z " fill="#676DEB" transform="translate(553,369)"/>
<path d="M0 0 C0.495 0.99 0.495 0.99 1 2 C-2.47258475 5.80381591 -5.95738714 7.12684959 -11 8 C-20.55413436 8.09099176 -30.72142019 7.23915254 -40 5 C-40.66 4.34 -41.32 3.68 -42 3 C-35.5815572 2.87414818 -35.5815572 2.87414818 -32.76171875 3.484375 C-21.43202226 5.59967901 -10.64439797 4.14668721 0 0 Z " fill="#7293EF" transform="translate(583,572)"/>
<path d="M0 0 C10.28830481 1.62641465 20.11095209 3.63090368 30 7 C31.10988281 7.36996094 32.21976563 7.73992187 33.36328125 8.12109375 C34.23339844 8.41113281 35.10351562 8.70117188 36 9 C35.67 9.66 35.34 10.32 35 11 C33.7625 10.566875 32.525 10.13375 31.25 9.6875 C29.50160974 9.1200163 27.75148416 8.55786153 26 8 C25.15308594 7.71382813 24.30617188 7.42765625 23.43359375 7.1328125 C9.73075389 3.0395033 -5.41765544 3.83606955 -19 8 C-18.67 7.34 -18.34 6.68 -18 6 C-15.35054065 5.1960666 -12.75348682 4.50297445 -10.0625 3.875 C-9.32064453 3.69324219 -8.57878906 3.51148438 -7.81445312 3.32421875 C-2.32342575 2 -2.32342575 2 0 2 C0 1.34 0 0.68 0 0 Z " fill="#5449E1" transform="translate(559,382)"/>
<path d="M0 0 C11.88 0.66 23.76 1.32 36 2 C36 2.66 36 3.32 36 4 C31.83741853 4.04969106 27.67499739 4.08585642 23.51220703 4.10986328 C22.09811391 4.11987856 20.68404127 4.13349474 19.27001953 4.15087891 C17.22944054 4.17532559 15.18913697 4.18652784 13.1484375 4.1953125 C11.92302246 4.20578613 10.69760742 4.21625977 9.43505859 4.22705078 C5.96166703 3.99746626 3.23393024 3.2511457 0 2 C0 1.34 0 0.68 0 0 Z " fill="#010110" transform="translate(532,595)"/>
<path d="M0 0 C5.69264719 5.15437396 6.99277462 11.98355797 7.39453125 19.41796875 C7.73539351 31.47398933 7.89286508 43.16218823 0 53 C0.68556033 49.10313077 1.82193397 45.5028234 3.0625 41.75 C4.71214724 36.06321605 5.37951489 30.91579193 5.375 25 C5.37636963 24.29456055 5.37773926 23.58912109 5.37915039 22.86230469 C5.28822712 18.54935675 4.53590238 15.01520548 3 11 C1.92991997 7.34913871 0.88793338 3.6997224 0 0 Z " fill="#3B39E3" transform="translate(624,507)"/>
<path d="M0 0 C0.33 0 0.66 0 1 0 C1.01030746 0.8054425 1.02061493 1.61088501 1.03123474 2.44073486 C1.12923237 10.03309169 1.23175005 17.62536767 1.33933926 25.21759415 C1.39449193 29.1207832 1.44789956 33.02397985 1.49731445 36.92724609 C1.5450711 40.69444955 1.59741776 44.46156387 1.65294075 48.22866058 C1.67331317 49.66553272 1.69203457 51.10242926 1.70907402 52.53934479 C1.7332312 54.55265433 1.76381483 56.56588365 1.79467773 58.57910156 C1.81799416 60.29785492 1.81799416 60.29785492 1.84178162 62.05133057 C1.97539254 64.54139804 2.27673381 66.62652159 3 69 C2.01 69.495 2.01 69.495 1 70 C-1.21195259 66.44641589 -1.21417742 63.62289693 -1.13525391 59.48730469 C-1.12579239 58.84298492 -1.11633087 58.19866516 -1.10658264 57.53482056 C-1.07301104 55.41354331 -1.02486841 53.29286356 -0.9765625 51.171875 C-0.95038434 49.69787133 -0.92511822 48.2238512 -0.90072632 46.74981689 C-0.83418315 42.87641522 -0.75526744 39.003361 -0.67376709 35.13024902 C-0.59274148 31.17550967 -0.52342714 27.22056694 -0.453125 23.265625 C-0.31354023 15.51017026 -0.16088315 7.75504526 0 0 Z " fill="#150F38" transform="translate(801,512)"/>
<path d="M0 0 C0.33 0 0.66 0 1 0 C1.33 4.29 1.66 8.58 2 13 C2.33 13 2.66 13 3 13 C3.04939115 17.09338652 3.08571501 21.18665798 3.10986328 25.28027344 C3.11992877 26.67320781 3.13358234 28.06612102 3.15087891 29.45898438 C3.1751022 31.4595436 3.18540814 33.46025615 3.1953125 35.4609375 C3.20578613 36.66540527 3.21625977 37.86987305 3.22705078 39.11083984 C3 42 3 42 1 44 C0.08964496 41.26893489 -0.12215713 39.70106761 -0.11352539 36.89575195 C-0.11344986 36.07512772 -0.11337433 35.25450348 -0.11329651 34.40901184 C-0.10813522 33.52767075 -0.10297394 32.64632965 -0.09765625 31.73828125 C-0.0962413 30.83248825 -0.09482635 29.92669525 -0.09336853 28.99345398 C-0.08777001 26.09976909 -0.07521781 23.20616151 -0.0625 20.3125 C-0.05748481 18.35091258 -0.05292193 16.38932394 -0.04882812 14.42773438 C-0.03780107 9.61845979 -0.02053747 4.809243 0 0 Z " fill="#261B5E" transform="translate(696,439)"/>
<path d="M0 0 C3.70380965 1.23460322 4.1298293 2.38942279 6.1875 5.625 C9.16340131 10.06341691 12.31388516 13.32367405 16.49609375 16.625 C16.99238281 17.07875 17.48867188 17.5325 18 18 C18 18.66 18 19.32 18 20 C18.66 20 19.32 20 20 20 C20 20.66 20 21.32 20 22 C18.68 21.67 17.36 21.34 16 21 C16 20.34 16 19.68 16 19 C15.195625 18.7525 14.39125 18.505 13.5625 18.25 C12.716875 17.8375 11.87125 17.425 11 17 C10.66666667 15.66666667 10.33333333 14.33333333 10 13 C8.83404297 12.59974609 8.83404297 12.59974609 7.64453125 12.19140625 C4.27347314 10.67268731 3.69216113 9.25730789 2.1875 5.9375 C1.76855469 5.03902344 1.34960938 4.14054687 0.91796875 3.21484375 C0 1 0 1 0 0 Z " fill="#02021D" transform="translate(494,456)"/>
<path d="M0 0 C1.39195915 4.17587745 -0.17676781 6.13474776 -2 10 C-1.34 10.33 -0.68 10.66 0 11 C0.23054453 12.97609599 0.4567447 14.95297709 0.64453125 16.93359375 C1.12092082 19.70293532 2.51978187 21.64510752 4 24 C3.67 24.99 3.34 25.98 3 27 C2.34 27 1.68 27 1 27 C-2.82580286 19.43379166 -4.02048949 12.46056983 -3 4 C-1 1 -1 1 0 0 Z " fill="#0D0B3B" transform="translate(524,410)"/>
<path d="M0 0 C0.33 0 0.66 0 1 0 C1.33 8.91 1.66 17.82 2 27 C1.34 27 0.68 27 0 27 C-0.77249145 21.59255982 -1.09752461 16.46137814 -1 11 C-4.60992379 11.65585189 -4.60992379 11.65585189 -8 13 C-6.53400783 9.91220974 -4.82973607 7.09532795 -2.9375 4.25 C-2.41027344 3.45078125 -1.88304687 2.6515625 -1.33984375 1.828125 C-0.89769531 1.22484375 -0.45554687 0.6215625 0 0 Z " fill="#020119" transform="translate(767,566)"/>
<path d="M0 0 C0.66 0.33 1.32 0.66 2 1 C0.10542846 4.16742316 -1.79089081 7.33379661 -3.6875 10.5 C-4.48317383 11.8303125 -4.48317383 11.8303125 -5.29492188 13.1875 C-8.47507094 18.49425182 -11.70348079 23.7647116 -15 29 C-15.33 28.34 -15.66 27.68 -16 27 C-15.01848637 25.23327547 -14.03028967 23.46919666 -12.98046875 21.7421875 C-11.89123234 19.98638133 -11.89123234 19.98638133 -11.4375 17.75 C-11 16 -11 16 -9.5625 14.6875 C-7.22161761 12.15934702 -6.80670456 9.28887243 -6 6 C-5.34 6 -4.68 6 -4 6 C-3.896875 5.38125 -3.79375 4.7625 -3.6875 4.125 C-3 2 -3 2 0 0 Z " fill="#408AF0" transform="translate(391,371)"/>
<path d="M0 0 C1.90647591 3.81295181 1.03052587 8.77207993 0.9609375 12.99609375 C0.92255369 16.85366635 1.00851006 20.5717654 1.52734375 24.3984375 C1.95886981 27.68659472 1.88770049 29.84373158 1 33 C0.34 33 -0.32 33 -1 33 C-1.93419737 29.1133779 -2.06207699 25.62941082 -1.9140625 21.640625 C-1.87023437 20.44308594 -1.82640625 19.24554688 -1.78125 18.01171875 C-1.7296875 16.77035156 -1.678125 15.52898437 -1.625 14.25 C-1.58117187 12.99316406 -1.53734375 11.73632812 -1.4921875 10.44140625 C-1.12978944 1.12978944 -1.12978944 1.12978944 0 0 Z " fill="#181143" transform="translate(626,383)"/>
<path d="M0 0 C3.34373475 0.55728913 6.03312999 1.35173889 9 3 C9 3.66 9 4.32 9 5 C-3.87 5 -16.74 5 -30 5 C-30 4.67 -30 4.34 -30 4 C-15.15 3.505 -15.15 3.505 0 3 C0 2.01 0 1.02 0 0 Z " fill="#522FE9" transform="translate(800,586)"/>
<path d="M0 0 C4.05143406 0.57331614 6.40378712 2.68116404 9.5 5.25 C10.4384375 6.01828125 11.376875 6.7865625 12.34375 7.578125 C14.87925359 9.88990768 16.94175209 12.26214193 19 15 C15.61638481 14.38271885 13.47997439 13.13020282 10.75 11.0625 C10.04359375 10.53785156 9.3371875 10.01320313 8.609375 9.47265625 C8.07828125 8.98667969 7.5471875 8.50070312 7 8 C7 7.34 7 6.68 7 6 C6.21625 5.7525 5.4325 5.505 4.625 5.25 C1.67682892 3.84610901 1.0975223 2.99324263 0 0 Z " fill="#03031E" transform="translate(601,399)"/>
<path d="M0 0 C12.42361671 -0.35003688 23.91805496 -0.1179213 36 3 C36 3.33 36 3.66 36 4 C31.36830092 4.89071136 29.11896066 5.12188883 25 3 C23.64757562 2.92823871 22.29160311 2.91287994 20.9375 2.9375 C17 3 17 3 14 2 C11.60745424 1.77439324 9.21071877 1.59151405 6.8125 1.4375 C5.54019531 1.35371094 4.26789062 1.26992188 2.95703125 1.18359375 C1.98121094 1.12300781 1.00539063 1.06242187 0 1 C0 0.67 0 0.34 0 0 Z " fill="#503CE2" transform="translate(557,370)"/>
<path d="M0 0 C4.63270954 4.25708444 7.82867098 7.91607766 8.1875 14.375 C8.125625 15.24125 8.06375 16.1075 8 17 C6.5 15.75 6.5 15.75 5 14 C5 12.68 5 11.36 5 10 C4.01 10.33 3.02 10.66 2 11 C0.80712589 7.12315913 0 4.08378077 0 0 Z " fill="#04042D" transform="translate(590,515)"/>
<path d="M0 0 C0.66 0.66 1.32 1.32 2 2 C1.66723549 8.10068259 1.66723549 8.10068259 -0.4375 10.9375 C-2 12 -2 12 -4 12 C-4.33 12.66 -4.66 13.32 -5 14 C-5.68359375 12.328125 -5.68359375 12.328125 -6 10 C-4.78515625 7.421875 -4.78515625 7.421875 -3.0625 4.75 C-2.49660156 3.85796875 -1.93070312 2.9659375 -1.34765625 2.046875 C-0.90292969 1.37140625 -0.45820313 0.6959375 0 0 Z " fill="#091036" transform="translate(318,497)"/>
<path d="M0 0 C0.33 0 0.66 0 1 0 C0.8453125 1.794375 0.8453125 1.794375 0.6875 3.625 C0.65644487 7.11559679 1.2385682 8.83724368 3.5 11.5 C4.325 12.325 5.15 13.15 6 14 C5.67 14.66 5.34 15.32 5 16 C4.34 16 3.68 16 3 16 C-0.51647805 12.24100622 -3.66951441 8.28776943 -4 3 C-3.01 3.495 -3.01 3.495 -2 4 C-1.67 3.01 -1.34 2.02 -1 1 C-0.67 0.67 -0.34 0.34 0 0 Z " fill="#090C3A" transform="translate(463,575)"/>
<path d="M0 0 C7.02952752 0.4535179 12.5849443 2.12059087 19 5 C18.67 5.66 18.34 6.32 18 7 C11.53287812 5.83805848 5.90377651 3.8751252 0 1 C0 0.67 0 0.34 0 0 Z " fill="#111436" transform="translate(518,566)"/>
<path d="M0 0 C3.30243195 0.56938482 4.91109409 1.36616211 7 4 C10 9.33333333 10 9.33333333 10 13 C10.66 13 11.32 13 12 13 C11.67 13.99 11.34 14.98 11 16 C9.66014102 14.33857487 8.32917292 12.66998649 7 11 C6.39800781 10.25234375 5.79601562 9.5046875 5.17578125 8.734375 C4.54027344 7.93515625 3.90476562 7.1359375 3.25 6.3125 C2.63640625 5.54550781 2.0228125 4.77851563 1.390625 3.98828125 C0 2 0 2 0 0 Z " fill="#100D37" transform="translate(616,491)"/>
<path d="M0 0 C5.94 0 11.88 0 18 0 C17.01 0.495 17.01 0.495 16 1 C16 1.66 16 2.32 16 3 C14.2709226 3.02725341 12.54171824 3.04650987 10.8125 3.0625 C9.36810547 3.07990234 9.36810547 3.07990234 7.89453125 3.09765625 C5.14423487 3.00486622 2.67520409 2.62111685 0 2 C0 1.34 0 0.68 0 0 Z " fill="#020212" transform="translate(427,415)"/>
<path d="M0 0 C0.99 0 1.98 0 3 0 C5.28964059 4.94080338 5.28964059 4.94080338 4.46484375 7.95703125 C3.71434788 9.67095437 2.86320768 11.33998524 2 13 C0.21590198 9.93753253 -0.22880021 7.77920727 -0.125 4.25 C-0.10695313 3.45078125 -0.08890625 2.6515625 -0.0703125 1.828125 C-0.04710937 1.22484375 -0.02390625 0.6215625 0 0 Z " fill="#101243" transform="translate(459,389)"/>
<path d="M0 0 C1.88330078 -0.08203125 1.88330078 -0.08203125 4.88720703 0.13671875 C5.54720703 1.12671875 6.20720703 2.11671875 6.88720703 3.13671875 C4.24720703 3.46671875 1.60720703 3.79671875 -1.11279297 4.13671875 C-1.11279297 3.47671875 -1.11279297 2.81671875 -1.11279297 2.13671875 C-7.71279297 2.13671875 -14.31279297 2.13671875 -21.11279297 2.13671875 C-21.11279297 1.80671875 -21.11279297 1.47671875 -21.11279297 1.13671875 C-18.09207367 0.96772746 -15.07124474 0.80145746 -12.05029297 0.63671875 C-11.20273437 0.58902344 -10.35517578 0.54132812 -9.48193359 0.4921875 C-6.32138263 0.32134691 -3.15854713 0.20438946 0 0 Z " fill="#02063B" transform="translate(569.11279296875,594.86328125)"/>
<path d="M0 0 C0.70189453 0.00451172 1.40378906 0.00902344 2.12695312 0.01367188 C3.85550538 0.02543073 5.58401365 0.04336546 7.3125 0.0625 C7.3125 0.7225 7.3125 1.3825 7.3125 2.0625 C4.0125 2.7225 0.7125 3.3825 -2.6875 4.0625 C-2.0275 3.4025 -1.3675 2.7425 -0.6875 2.0625 C-7.1225 2.5575 -7.1225 2.5575 -13.6875 3.0625 C-9.06453806 -0.01947463 -5.37263877 -0.0652141 0 0 Z " fill="#010934" transform="translate(266.6875,385.9375)"/>
<path d="M0 0 C1.5625 1.1875 1.5625 1.1875 3 3 C2.6875 5.6875 2.6875 5.6875 2 8 C1.01 8 0.02 8 -1 8 C-1.33 8.99 -1.66 9.98 -2 11 C-2.66 10.67 -3.32 10.34 -4 10 C-3.43454163 6.04179141 -2.19097652 3.3340947 0 0 Z " fill="#070F37" transform="translate(285,552)"/>
<path d="M0 0 C0.66 0 1.32 0 2 0 C2 0.66 2 1.32 2 2 C1.34 2 0.68 2 0 2 C-0.0825 2.66 -0.165 3.32 -0.25 4 C-1.23497261 7.93989042 -2.67157389 11.65150151 -5 15 C-7.13671875 16.23828125 -7.13671875 16.23828125 -9 17 C-7.5143761 12.99624358 -5.63136615 9.38578153 -3.5 5.6875 C-2.58734375 4.08455078 -2.58734375 4.08455078 -1.65625 2.44921875 C-1.1096875 1.64097656 -0.563125 0.83273437 0 0 Z " fill="#0E63E9" transform="translate(344,387)"/>
<path d="M0 0 C0.66 0.33 1.32 0.66 2 1 C-0.64 5.62 -3.28 10.24 -6 15 C-6.33 15 -6.66 15 -7 15 C-7 13.35 -7 11.7 -7 10 C-6.34 10 -5.68 10 -5 10 C-5.33 9.01 -5.66 8.02 -6 7 C-5.34 6.01 -4.68 5.02 -4 4 C-3.01 4 -2.02 4 -1 4 C-0.67 2.68 -0.34 1.36 0 0 Z " fill="#030843" transform="translate(254,536)"/>
<path d="M0 0 C5.30586751 2.0573772 9.53480514 4.4460694 14 8 C14 8.66 14 9.32 14 10 C11.0280615 8.87548273 8.66559313 7.77706209 6 6 C3.88719655 5.36707617 3.88719655 5.36707617 2 5 C2 4.01 2 3.02 2 2 C1.34 2 0.68 2 0 2 C0 1.34 0 0.68 0 0 Z " fill="#134BEF" transform="translate(496,555)"/>
<path d="M0 0 C1.423125 0.495 1.423125 0.495 2.875 1 C5.77062452 2.10159191 5.77062452 2.10159191 8 2 C8 2.99 8 3.98 8 5 C8.598125 5.0825 9.19625 5.165 9.8125 5.25 C12.5966296 6.20455872 13.43311142 7.57132271 15 10 C14.67 10.66 14.34 11.32 14 12 C12.22750476 10.5645497 10.45706424 9.12656197 8.6875 7.6875 C7.70136719 6.88699219 6.71523438 6.08648437 5.69921875 5.26171875 C3.68397834 3.57311644 1.80511991 1.90369301 0 0 Z " fill="#5644DE" transform="translate(597,394)"/>
<path d="M0 0 C2.91019311 2.46824401 3.93540196 4.93080098 5.1875 8.5 C5.53167969 9.4590625 5.87585938 10.418125 6.23046875 11.40625 C7 14 7 14 7 17 C6.34 17 5.68 17 5 17 C3.08785912 11.40015885 1.38129333 5.75538889 0 0 Z " fill="#473CED" transform="translate(624,507)"/>
<path d="M0 0 C-2.42182607 3.6327391 -3.50445117 3.68131947 -7.625 4.6875 C-8.62789062 4.93886719 -9.63078125 5.19023438 -10.6640625 5.44921875 C-11.43492187 5.63097656 -12.20578125 5.81273437 -13 6 C-9.86776542 1.38759359 -5.69487627 -1.89829209 0 0 Z " fill="#03031C" transform="translate(750,588)"/>
<path d="M0 0 C0.66 0 1.32 0 2 0 C0.62712658 3.69876091 -1.06355453 6.9514476 -3.125 10.3125 C-3.66382813 11.19550781 -4.20265625 12.07851563 -4.7578125 12.98828125 C-5.37269531 13.98408203 -5.37269531 13.98408203 -6 15 C-7 12 -7 12 -6 9 C-5.34 9 -4.68 9 -4 9 C-3.67 7.35 -3.34 5.7 -3 4 C-2.34 4 -1.68 4 -1 4 C-0.67 2.68 -0.34 1.36 0 0 Z " fill="#020951" transform="translate(238,563)"/>
<path d="M0 0 C0.99 0.33 1.98 0.66 3 1 C-1.455 8.425 -1.455 8.425 -6 16 C-7 13 -7 13 -6.07421875 11.1328125 C-5.38779297 10.13894531 -5.38779297 10.13894531 -4.6875 9.125 C-2.71870876 6.1608754 -1.164047 3.38631853 0 0 Z " fill="#0D73EA" transform="translate(330,470)"/>
<path d="M0 0 C1.98 0 3.96 0 6 0 C6 2.64 6 5.28 6 8 C1.125 3.375 1.125 3.375 0 0 Z " fill="#6342F0" transform="translate(762,442)"/>
<path d="M0 0 C3.68006822 3.38168431 5.9785845 6.42521756 8 11 C7.01 11 6.02 11 5 11 C5 10.34 5 9.68 5 9 C4.34 9 3.68 9 3 9 C2.01 6.03 1.02 3.06 0 0 Z " fill="#050325" transform="translate(655,439)"/>
<path d="M0 0 C0.6484375 1.78125 0.6484375 1.78125 1 4 C0.0390625 5.78125 0.0390625 5.78125 -1.375 7.5 C-3.39661828 9.98467051 -4.40320975 11.83562379 -5 15 C-6.32 15.33 -7.64 15.66 -9 16 C-8.06385433 14.27009975 -7.12602042 12.54111304 -6.1875 10.8125 C-5.66542969 9.84957031 -5.14335937 8.88664062 -4.60546875 7.89453125 C-3.12536134 5.22601643 -1.58662491 2.60625773 0 0 Z " fill="#1C7DEA" transform="translate(296,468)"/>
<path d="M0 0 C0.66 0.66 1.32 1.32 2 2 C1.625 4.125 1.625 4.125 1 6 C2.98 5.34 4.96 4.68 7 4 C6.04578192 5.14926266 5.08647955 6.29430541 4.125 7.4375 C3.59132812 8.07558594 3.05765625 8.71367187 2.5078125 9.37109375 C1 11 1 11 -1 12 C-0.67 8.04 -0.34 4.08 0 0 Z " fill="#1D89F5" transform="translate(233,392)"/>
<path d="M0 0 C1.485 0.99 1.485 0.99 3 2 C3.30754089 5.53672026 3.04293785 8.61045199 2 12 C1.34 12 0.68 12 0 12 C0 8.04 0 4.08 0 0 Z " fill="#244FFC" transform="translate(493,430)"/>
<path d="M0 0 C0 3.4369632 -0.32774131 3.78061805 -2.625 6.125 C-5.56642923 8.95437478 -7.85472703 9.80260605 -12 10 C-11.319375 9.46375 -10.63875 8.9275 -9.9375 8.375 C-6.56615832 5.64923439 -3.27934457 2.83516822 0 0 Z " fill="#1365F0" transform="translate(383,561)"/>
<path d="M0 0 C0.99 0.33 1.98 0.66 3 1 C2.21572648 2.64936913 1.42234741 4.29441127 0.625 5.9375 C0.18414062 6.85402344 -0.25671875 7.77054688 -0.7109375 8.71484375 C-2 11 -2 11 -4 12 C-3.33501617 7.61110675 -1.81242323 4.0188515 0 0 Z " fill="#030A44" transform="translate(269,508)"/>
<path d="M0 0 C4.11320755 6.16981132 4.11320755 6.16981132 3.625 9.75 C3.41875 10.4925 3.2125 11.235 3 12 C1.33167423 9.49751135 0.37618326 7.58850813 -0.625 4.8125 C-0.88539063 4.09707031 -1.14578125 3.38164062 -1.4140625 2.64453125 C-1.60742188 2.10183594 -1.80078125 1.55914062 -2 1 C-1.34 0.67 -0.68 0.34 0 0 Z " fill="#100B3D" transform="translate(629,507)"/>
<path d="M0 0 C4.39158329 1.4638611 4.87947433 3.97831338 7 8 C6.01 9.485 6.01 9.485 5 11 C4.16426177 9.35538655 3.33147118 7.70927487 2.5 6.0625 C2.0359375 5.14597656 1.571875 4.22945313 1.09375 3.28515625 C0 1 0 1 0 0 Z " fill="#02042C" transform="translate(494,456)"/>
<path d="M0 0 C3.39608504 1.45546502 5.40860299 3.40860299 8 6 C10.13309192 7.23512079 10.13309192 7.23512079 12 8 C11.67 8.99 11.34 9.98 11 11 C9.72486237 9.92173635 8.45507431 8.83714481 7.1875 7.75 C6.47980469 7.14671875 5.77210938 6.5434375 5.04296875 5.921875 C3.08110329 4.07629602 1.54330375 2.20054668 0 0 Z " fill="#5E4CE6" transform="translate(612,405)"/>
<path d="M0 0 C0.33 0 0.66 0 1 0 C1 3.3 1 6.6 1 10 C0.67 8.68 0.34 7.36 0 6 C-0.66 6 -1.32 6 -2 6 C-2 6.66 -2 7.32 -2 8 C-2.99 7.67 -3.98 7.34 -5 7 C-4.19152271 5.83054208 -3.37810888 4.66449539 -2.5625 3.5 C-2.11003906 2.8503125 -1.65757812 2.200625 -1.19140625 1.53125 C-0.79824219 1.0259375 -0.40507813 0.520625 0 0 Z " fill="#070423" transform="translate(767,566)"/>
<path d="M0 0 C0.66 0.99 1.32 1.98 2 3 C0.98819642 6.77126791 0.32378142 7.78414572 -3 10 C-3 5.66905042 -2.03435531 3.72965139 0 0 Z " fill="#080E34" transform="translate(331,475)"/>
<path d="M0 0 C0.33 0 0.66 0 1 0 C0.67 3.3 0.34 6.6 0 10 C-1.32 9.67 -2.64 9.34 -4 9 C-2.80100302 5.9168649 -1.52299523 2.93720508 0 0 Z " fill="#091037" transform="translate(344,453)"/>
<path d="M0 0 C0.99 0.33 1.98 0.66 3 1 C3 1.66 3 2.32 3 3 C4.32 3.66 5.64 4.32 7 5 C4.03 5 1.06 5 -2 5 C-2 3.68 -2 2.36 -2 1 C-1.34 0.67 -0.68 0.34 0 0 Z " fill="#6242F4" transform="translate(610,378)"/>
<path d="M0 0 C0.33 0.66 0.66 1.32 1 2 C-2.01887244 5.48331435 -4.56909529 6.79157144 -9 8 C-7.82255415 4.46766245 -7.04394359 4.13691925 -3.9375 2.3125 C-3.20402344 1.87550781 -2.47054687 1.43851563 -1.71484375 0.98828125 C-1.14894531 0.66214844 -0.58304688 0.33601562 0 0 Z " fill="#060521" transform="translate(608,579)"/>
<path d="M0 0 C0.66 0.33 1.32 0.66 2 1 C0.88200014 2.33920838 -0.24461897 3.67122556 -1.375 5 C-2.00148438 5.7425 -2.62796875 6.485 -3.2734375 7.25 C-4.12808594 8.11625 -4.12808594 8.11625 -5 9 C-5.66 9 -6.32 9 -7 9 C-6.67 7.68 -6.34 6.36 -6 5 C-5.01 5 -4.02 5 -3 5 C-3 4.01 -3 3.02 -3 2 C-2.01 2 -1.02 2 0 2 C0 1.34 0 0.68 0 0 Z " fill="#020947" transform="translate(384,557)"/>
<path d="M0 0 C0.99 0 1.98 0 3 0 C2.67 4.95 2.34 9.9 2 15 C1.67 15 1.34 15 1 15 C0.67 10.05 0.34 5.1 0 0 Z " fill="#0A073E" transform="translate(632,521)"/>
<path d="M0 0 C0.93423645 3.01031744 1.04449911 3.86650268 0 7 C-2.0625 7.6875 -2.0625 7.6875 -4 8 C-4.33 7.01 -4.66 6.02 -5 5 C-3.33333333 3.33333333 -1.66666667 1.66666667 0 0 Z " fill="#0B0F3C" transform="translate(351,445)"/>
<path d="M0 0 C0.66 0.33 1.32 0.66 2 1 C-0.475 5.455 -0.475 5.455 -3 10 C-4 6 -4 6 -4 3 C-2.68 2.67 -1.36 2.34 0 2 C0 1.34 0 0.68 0 0 Z " fill="#030642" transform="translate(309,443)"/>
<path d="M0 0 C0.99 0 1.98 0 3 0 C2.75 2.875 2.75 2.875 2 6 C-0.0625 7.375 -0.0625 7.375 -2 8 C-2 4.23312136 -1.76462683 3.08809695 0 0 Z " fill="#090E38" transform="translate(291,542)"/>
<path d="M0 0 C0.66 0.66 1.32 1.32 2 2 C0.02 5.63 -1.96 9.26 -4 13 C-5 9 -5 9 -4.0625 6.75 C-3.5365625 5.88375 -3.5365625 5.88375 -3 5 C-2.34 5 -1.68 5 -1 5 C-0.67 3.35 -0.34 1.7 0 0 Z " fill="#01074E" transform="translate(334,400)"/>
<path d="M0 0 C0.99 0 1.98 0 3 0 C3 3.96 3 7.92 3 12 C2.67 12 2.34 12 2 12 C2 10.02 2 8.04 2 6 C1.34 6 0.68 6 0 6 C0 4.02 0 2.04 0 0 Z " fill="#6091ED" transform="translate(456,386)"/>
<path d="M0 0 C6.57142857 5 6.57142857 5 8 10 C6.2925002 8.71937515 4.62626404 7.38232443 3 6 C3 5.34 3 4.68 3 4 C2.01 4 1.02 4 0 4 C0 2.68 0 1.36 0 0 Z " fill="#453AE9" transform="translate(613,492)"/>
<path d="M0 0 C0.66 0.33 1.32 0.66 2 1 C0.66511872 4.59391114 -0.96022723 7.75490696 -3 11 C-4 8 -4 8 -3 5 C-2.34 5 -1.68 5 -1 5 C-0.67 3.35 -0.34 1.7 0 0 Z " fill="#020951" transform="translate(318,427)"/>
<path d="M0 0 C2.76223278 2.76223278 2.57856291 5.20706617 3 9 C2.38125 8.360625 1.7625 7.72125 1.125 7.0625 C-0.82597612 4.96116416 -0.82597612 4.96116416 -3 4 C-3 3.01 -3 2.02 -3 1 C-2.01 0.67 -1.02 0.34 0 0 Z " fill="#040C42" transform="translate(419,447)"/>
<path d="M0 0 C1.46795245 3.81667636 0.59626457 6.32859149 -1 10 C-1.99 10.66 -2.98 11.32 -4 12 C-3.33501617 7.61110675 -1.81242323 4.0188515 0 0 Z " fill="#3E49E3" transform="translate(599,552)"/>
<path d="M0 0 C2.68563983 4.8341517 3.38572221 8.61108031 2 14 C1.67 14 1.34 14 1 14 C0.04738513 9.23692563 -0.08333357 4.8333472 0 0 Z " fill="#130B40" transform="translate(695,491)"/>
<path d="M0 0 C0.33 0 0.66 0 1 0 C0.38461538 6.52307692 0.38461538 6.52307692 -1.5625 8.9375 C-2.036875 9.288125 -2.51125 9.63875 -3 10 C-4 7 -4 7 -3.22265625 5.17578125 C-2.1484375 3.45052083 -1.07421875 1.72526042 0 0 Z " fill="#090C3C" transform="translate(367,414)"/>
<path d="M0 0 C1.45606519 4.52092968 0.27032841 7.51648796 -1 12 C-1.33 12 -1.66 12 -2 12 C-2 8.7 -2 5.4 -2 2 C-1.34 2 -0.68 2 0 2 C0 1.34 0 0.68 0 0 Z " fill="#040437" transform="translate(495,405)"/>
<path d="M0 0 C7.75 -0.125 7.75 -0.125 10 1 C10 1.66 10 2.32 10 3 C3.375 2.25 3.375 2.25 0 0 Z " fill="#1B40D5" transform="translate(508,588)"/>
<path d="M0 0 C3.34373475 0.55728913 6.03312999 1.35173889 9 3 C9 3.66 9 4.32 9 5 C4.545 4.01 4.545 4.01 0 3 C0 2.01 0 1.02 0 0 Z " fill="#5737E4" transform="translate(800,586)"/>
<path d="M0 0 C0.66 0 1.32 0 2 0 C0.8141763 3.37503669 -0.27573689 5.64722731 -3 8 C-3.33 7.01 -3.66 6.02 -4 5 C-3.34 5 -2.68 5 -2 5 C-1.7834375 4.0409375 -1.7834375 4.0409375 -1.5625 3.0625 C-1 1 -1 1 0 0 Z " fill="#030746" transform="translate(245,551)"/>
<path d="M0 0 C3.99500618 1.3697164 6.80009492 3.25722422 10 6 C7.36 5.67 4.72 5.34 2 5 C1.34 3.35 0.68 1.7 0 0 Z " fill="#2940E7" transform="translate(534,449)"/>
<path d="M0 0 C1.32 0.33 2.64 0.66 4 1 C4.33 3.97 4.66 6.94 5 10 C0 2.5 0 2.5 0 0 Z " fill="#135CEA" transform="translate(417,442)"/>
<path d="M0 0 C1 3 1 3 0.25 5.625 C-1 8 -1 8 -4 9 C-2.94124926 5.59687262 -1.99097846 2.98646769 0 0 Z " fill="#0C66E8" transform="translate(328,414)"/>
<path d="M0 0 C0 0.66 0 1.32 0 2 C-3.3 1.34 -6.6 0.68 -10 0 C-10 -0.33 -10 -0.66 -10 -1 C-5.92224809 -1.9267618 -3.57818963 -2.33958553 0 0 Z " fill="#191438" transform="translate(602,372)"/>
<path d="M0 0 C1.14926266 0.95421808 2.29430541 1.91352045 3.4375 2.875 C4.07558594 3.40867187 4.71367187 3.94234375 5.37109375 4.4921875 C7 6 7 6 8 8 C4.11137013 6.73882275 2.10624401 5.54735833 0 2 C0 1.34 0 0.68 0 0 Z " fill="#1A59E6" transform="translate(491,548)"/>
<path d="M0 0 C0.66 0 1.32 0 2 0 C0.7508258 3.45925163 -0.67527795 6.14693203 -3 9 C-3.25532751 5.93606987 -3.21861333 4.36766788 -1.625 1.6875 C-0.820625 0.8521875 -0.820625 0.8521875 0 0 Z " fill="#030949" transform="translate(259,527)"/>
<path d="M0 0 C3.55780196 0.60990891 6.6828589 1.5783681 10 3 C6.52176885 4.15941038 4.54104422 3.70820884 1 3 C0.67 2.01 0.34 1.02 0 0 Z " fill="#171134" transform="translate(614,376)"/>
<path d="M0 0 C1.2077558 3.62326739 0.54311128 4.64146369 -1 8 C-1.66 6.68 -2.32 5.36 -3 4 C-1 1 -1 1 0 0 Z " fill="#120F3A" transform="translate(633,545)"/>
<path d="M0 0 C1.485 0.99 1.485 0.99 3 2 C3.1875 5.125 3.1875 5.125 3 8 C2.01 8 1.02 8 0 8 C0 5.36 0 2.72 0 0 Z " fill="#160E48" transform="translate(694,504)"/>
<path d="M0 0 C2.29013653 3.4352048 2.17842973 4.985331 2 9 C1.67 8.01 1.34 7.02 1 6 C0.34 6 -0.32 6 -1 6 C-1.042721 4.33388095 -1.04063832 2.66617115 -1 1 C-0.67 0.67 -0.34 0.34 0 0 Z " fill="#040325" transform="translate(490,438)"/>
<path d="M0 0 C0.33 0.66 0.66 1.32 1 2 C1.66 2.33 2.32 2.66 3 3 C2.67 3.66 2.34 4.32 2 5 C1.34 5 0.68 5 0 5 C0 5.99 0 6.98 0 8 C-0.66 7.67 -1.32 7.34 -2 7 C-1.125 2.25 -1.125 2.25 0 0 Z " fill="#0A123F" transform="translate(358,429)"/>
<path d="M0 0 C1.2077558 3.62326739 0.54311128 4.64146369 -1 8 C-1.66 7.67 -2.32 7.34 -3 7 C-2.625 4.0625 -2.625 4.0625 -2 1 C-1.34 0.67 -0.68 0.34 0 0 Z " fill="#111143" transform="translate(524,410)"/>
<path d="M0 0 C0.33 0.66 0.66 1.32 1 2 C0.0625 4.625 0.0625 4.625 -1 7 C-2.32 6.34 -3.64 5.68 -5 5 C-3.35 3.35 -1.7 1.7 0 0 Z " fill="#040837" transform="translate(238,398)"/>
</svg>
